<svg xmlns="http://www.w3.org/2000/svg" viewBox="0 0 1440 320">
  <path
    fill="#2a2a2a"
    fill-opacity="1"
    d="M0,128L30,160C60,192,120,256,180,250.7C240,245,300,171,360,128C420,85,480,75,540,90.7C600,107,660,149,720,144C780,139,840,85,900,58.7C960,32,1020,32,1080,74.7C1140,117,1200,203,1260,224C1320,245,1380,203,1410,181.3L1440,160L1440,0L1410,0C1380,0,1320,0,1260,0C1200,0,1140,0,1080,0C1020,0,960,0,900,0C840,0,780,0,720,0C660,0,600,0,540,0C480,0,420,0,360,0C300,0,240,0,180,0C120,0,60,0,30,0L0,0Z"></path>
</svg>
